<?xml version="1.0" encoding="UTF-8"?>
<svg version="1.1" xmlns="http://www.w3.org/2000/svg" width="144" height="176">
<path d="M0 0 C1.98 0.66 3.96 1.32 6 2 C5.44890325 9.54385572 4.11104653 16.7557699 2.4375 24.125 C2.08655273 25.7028125 2.08655273 25.7028125 1.72851562 27.3125 C1.15750875 29.87620435 0.58126181 32.43860496 0 35 C1.32 35.33 2.64 35.66 4 36 C4 39.3 4 42.6 4 46 C13.27077413 37.59162347 22.20973615 28.90887311 31 20 C33 22 33 22 33.29223633 25.60180664 C33.1682185 30.20821087 31.9204176 34.08277003 30.32421875 38.37109375 C30.04300674 39.15897278 29.76179474 39.94685181 29.47206116 40.75860596 C28.55488006 43.32234348 27.62105937 45.87968678 26.6875 48.4375 C25.39956497 52.02412267 24.12020321 55.61379228 22.83984375 59.203125 C22.51646027 60.10572556 22.19307678 61.00832611 21.8598938 61.9382782 C18.43863489 71.50927814 15.23233552 81.1482206 12.05380249 90.80197144 C11.61172675 92.14448093 11.1692048 93.48684359 10.72618103 94.82904053 C10.153749 96.56467517 9.58408222 98.30122116 9.01464844 100.0378418 C7.1548069 105.46745137 5.79461341 108.58480522 1.375 112.375 C0.03308594 113.53902344 0.03308594 113.53902344 -1.3359375 114.7265625 C-2.21507812 115.47679687 -3.09421875 116.22703125 -4 117 C-5.41782749 118.24868316 -6.83460991 119.4985547 -8.25 120.75 C-11.45370645 123.55678707 -14.72352614 126.27886069 -18 129 C-27.5978163 123.36383553 -36.97280754 117.48417621 -46.17993164 111.22924805 C-48.17642238 109.83630442 -48.17642238 109.83630442 -51.18188477 108.29052734 C-54 106 -54 106 -54.61669922 102.80053711 C-54.52412842 100.9637439 -54.52412842 100.9637439 -54.4296875 99.08984375 C-54.40405731 98.42597153 -54.37842712 97.7620993 -54.35202026 97.07810974 C-54.26559419 95.04905927 -54.13688261 93.02620137 -54 91 C-53.94102539 89.88125488 -53.88205078 88.76250977 -53.82128906 87.60986328 C-53.6257155 84.25724605 -53.37993043 80.91110274 -53.125 77.5625 C-52.93992276 74.95848674 -52.75686357 72.35444568 -52.578125 69.75 C-52.5074733 68.72145653 -52.5074733 68.72145653 -52.43539429 67.6721344 C-51.87406926 59.34866066 -51.43225078 51.0189471 -51.00872803 42.68746948 C-50.92087813 40.96304934 -50.83160736 39.23870089 -50.74078369 37.51443481 C-50.1888488 26.99743764 -49.87591379 16.5325561 -50 6 C-48.35 5.34 -46.7 4.68 -45 4 C-44.80365967 4.53367187 -44.60731934 5.06734375 -44.4050293 5.6171875 C-43.49944013 8.07821853 -42.59347212 10.53910993 -41.6875 13 C-41.37876953 13.83917969 -41.07003906 14.67835937 -40.75195312 15.54296875 C-40.44580078 16.37441406 -40.13964844 17.20585938 -39.82421875 18.0625 C-39.5204834 18.89007813 -39.21674805 19.71765625 -38.90380859 20.5703125 C-38.31502492 22.15312588 -37.71434282 23.73157997 -37.10009766 25.3046875 C-35.91557024 28.34643693 -35 30.70420769 -35 34 C-34.34 34 -33.68 34 -33 34 C-32.896875 32.9275 -32.79375 31.855 -32.6875 30.75 C-31.9900266 25.04712923 -30.46923218 19.54427239 -29 14 C-27.02 14 -25.04 14 -23 14 C-21.20724134 17.11910856 -20.65709282 19.67682428 -20.375 23.25 C-20.30023438 24.14203125 -20.22546875 25.0340625 -20.1484375 25.953125 C-20.09945312 26.62859375 -20.05046875 27.3040625 -20 28 C-16.1779718 24.51071308 -13.44066369 20.50984063 -10.5625 16.25 C-9.86543945 15.23292969 -9.86543945 15.23292969 -9.15429688 14.1953125 C-5.97997857 9.53787477 -2.95324266 4.80032377 0 0 Z M-12.25 81.875 C-16.86824495 86.83116531 -21.09962214 92.20408982 -23.1875 98.6875 C-22.98115006 102.33301561 -21.85021558 104.15635323 -19.859375 107.15625 C-18.29324903 110.51630208 -19.25646176 113.46819335 -20 117 C-17.9754262 115.06745228 -16.57894208 113.36841312 -15 111 C-15.08788229 109.16297654 -15.24259192 107.32876716 -15.4375 105.5 C-15.58851305 99.83701075 -14.23599619 97.33279447 -10.5625 93.0625 C-9.73878906 92.20785156 -8.91507813 91.35320312 -8.06640625 90.47265625 C-5.85879183 87.83103067 -5.12951336 86.41802648 -5 83 C-5.66 82.01 -6.32 81.02 -7 80 C-10.10402996 79.6799078 -10.10402996 79.6799078 -12.25 81.875 Z M-21 117 C-20 119 -20 119 -20 119 Z M-22 119 C-21 121 -21 121 -21 121 Z M-23 121 C-22 124 -22 124 -22 124 Z " fill="#514293" transform="translate(86,25)"/>
<path d="M0 0 C0.33 0 0.66 0 1 0 C0.462473 5.55611662 -0.62151916 10.46575998 -2.5546875 15.71484375 C-2.81224319 16.43599869 -3.06979889 17.15715363 -3.3351593 17.90016174 C-3.88806958 19.44639814 -4.44452711 20.99136997 -5.00424194 22.53515625 C-6.49247842 26.64106784 -7.95429958 30.75637375 -9.41796875 34.87109375 C-9.71695572 35.70977997 -10.01594269 36.54846619 -10.32398987 37.41256714 C-13.89378677 47.45803239 -17.23732902 57.57741294 -20.57177734 67.70288086 C-20.78916061 68.3615062 -21.00654388 69.02013153 -21.23051453 69.69871521 C-21.81200356 71.46195147 -22.39085002 73.22605861 -22.96948242 74.99023438 C-24.835571 80.44039785 -26.18954262 83.57121767 -30.625 87.375 C-31.51960938 88.15101563 -32.41421875 88.92703125 -33.3359375 89.7265625 C-34.21507813 90.47679687 -35.09421875 91.22703125 -36 92 C-37.41782749 93.24868316 -38.83460991 94.4985547 -40.25 95.75 C-43.46043862 98.54934587 -46.7143971 101.28937761 -50 104 C-51.65 103.01 -53.3 102.02 -55 101 C-52.57798165 92.74311927 -52.57798165 92.74311927 -49.8125 89.1875 C-47.73743436 85.53824664 -47.97817779 84.37660435 -48.3125 80.3125 C-48.56391535 74.6975572 -47.20512962 72.30077975 -43.5625 68.0625 C-42.73878906 67.20785156 -41.91507813 66.35320312 -41.06640625 65.47265625 C-38.8558016 62.82745257 -38.21871157 61.40404927 -38 58 C-38.33 57.01 -38.66 56.02 -39 55 C-36 53 -36 53 -34 53 C-33.67 51.68 -33.34 50.36 -33 49 C-30.03 49 -27.06 49 -24 49 C-23.731875 48.319375 -23.46375 47.63875 -23.1875 46.9375 C-22.10660651 44.26371083 -20.97510837 41.61689532 -19.82421875 38.97265625 C-19.2755326 37.65945007 -18.7569545 36.33324951 -18.26953125 34.99609375 C-16.00123117 28.87274845 -13.09476336 23.14681787 -10.0625 17.375 C-9.64347412 16.57545898 -9.22444824 15.77591797 -8.79272461 14.95214844 C-3.31683266 4.64883942 -3.31683266 4.64883942 0 0 Z " fill="#514393" transform="translate(118,50)"/>
<path d="M0 0 C1.98 0.66 3.96 1.32 6 2 C5.44890325 9.54385572 4.11104653 16.7557699 2.4375 24.125 C2.20353516 25.176875 1.96957031 26.22875 1.72851562 27.3125 C1.15750875 29.87620435 0.58126181 32.43860496 0 35 C0.66 35.33 1.32 35.66 2 36 C-1.93670488 37.31223496 -4.12488144 36.24296256 -8 35 C-7.95875 35.804375 -7.9175 36.60875 -7.875 37.4375 C-7.99808604 40.94545213 -8.60777678 43.88720615 -9.421875 47.27734375 C-10.59383945 52.79666281 -11.25255274 58.41004871 -12 64 C-15.96 63.01 -19.92 62.02 -24 61 C-24.33 58.69 -24.66 56.38 -25 54 C-24.34805664 53.60578857 -23.69611328 53.21157715 -23.02441406 52.80541992 C-20.80099799 51.18667294 -20.80099799 51.18667294 -20.54589844 48.73168945 C-20.5668457 47.86761475 -20.58779297 47.00354004 -20.609375 46.11328125 C-20.62226562 45.17548828 -20.63515625 44.23769531 -20.6484375 43.27148438 C-20.68195313 42.29501953 -20.71546875 41.31855469 -20.75 40.3125 C-20.76804687 39.32443359 -20.78609375 38.33636719 -20.8046875 37.31835938 C-20.85184553 34.87793158 -20.91763958 32.43945231 -21 30 C-20.34 30 -19.68 30 -19 30 C-18.78988281 29.34644531 -18.57976562 28.69289063 -18.36328125 28.01953125 C-16.48294878 23.85478339 -13.86821719 20.37308095 -11.1875 16.6875 C-7.24876083 11.23947883 -3.48747317 5.74961793 0 0 Z " fill="#F7F6F8" transform="translate(86,25)"/>
<path d="M0 0 C0.66 0.66 1.32 1.32 2 2 C1.42092106 6.21402023 -0.95360389 9.63686851 -3.0625 13.25 C-12.17641994 28.95565947 -12.17641994 28.95565947 -18.34765625 45.9375 C-19.34525138 49.09157321 -21.00334898 51.38369867 -23 54 C-25.64 53.34 -28.28 52.68 -31 52 C-31.10601935 48.97844851 -31.07219858 46.02030747 -31 43 C-31.03867188 41.87464844 -31.07734375 40.74929687 -31.1171875 39.58984375 C-30.86850801 31.70670393 -29.40473865 27.67142086 -23.79296875 22.2565918 C-20.96178816 19.72645395 -18.0739601 17.27285091 -15.15380859 14.84619141 C-11.75356563 11.93158731 -8.63172692 8.76008822 -5.5 5.5625 C-4.42725697 4.48029661 -3.35435834 3.3982474 -2.28125 2.31640625 C-1.15203125 1.16978516 -1.15203125 1.16978516 0 0 Z " fill="#F6F5F9" transform="translate(117,45)"/>
<path d="M0 0 C1.98 0 3.96 0 6 0 C10.42443994 7.78773371 9.13543741 18.33863295 9.25 27.0625 C9.282146 28.45553345 9.282146 28.45553345 9.31494141 29.87670898 C9.31929199 30.75399658 9.32364258 31.63128418 9.328125 32.53515625 C9.34214355 33.71670288 9.34214355 33.71670288 9.35644531 34.92211914 C8.90995565 37.52490923 8.0783747 38.4184492 6 40 C5.34 40 4.68 40 4 40 C4 42.31 4 44.62 4 47 C3.67 45.68 3.34 44.36 3 43 C1.02 43.495 1.02 43.495 -1 44 C-1.66 42.68 -2.32 41.36 -3 40 C-4.485 40.495 -4.485 40.495 -6 41 C-7.3392554 33.28913555 -6.35264805 26.97421223 -4.6875 19.375 C-4.46126953 18.281875 -4.23503906 17.18875 -4.00195312 16.0625 C-2.86308413 10.6405646 -1.61713267 5.29933616 0 0 Z " fill="#504290" transform="translate(57,39)"/>
<path d="M0 0 C3.96 0.33 7.92 0.66 12 1 C10.68 12.88 9.36 24.76 8 37 C6.35 36.67 4.7 36.34 3 36 C1.06321983 35.64191784 -0.87429326 35.28777833 -2.8125 34.9375 C-3.78832031 34.76089844 -4.76414062 34.58429688 -5.76953125 34.40234375 C-6.50558594 34.26957031 -7.24164063 34.13679688 -8 34 C-7.34 33.34 -6.68 32.68 -6 32 C-6.825 31.525625 -7.65 31.05125 -8.5 30.5625 C-9.325 30.046875 -10.15 29.53125 -11 29 C-11 28.67 -11 28.34 -11 28 C-8.69 28.33 -6.38 28.66 -4 29 C-3.9498877 28.40574219 -3.89977539 27.81148437 -3.84814453 27.19921875 C-3.61378245 24.46552591 -3.36945678 21.7328079 -3.125 19 C-3.04636719 18.06542969 -2.96773437 17.13085938 -2.88671875 16.16796875 C-2.37929921 10.58635381 -1.51493743 5.39776026 0 0 Z " fill="#524492" transform="translate(78,60)"/>
<path d="M0 0 C0.66 0 1.32 0 2 0 C2.4635873 1.25649358 2.92711589 2.51300882 3.390625 3.76953125 C3.68646484 4.57060303 3.98230469 5.3716748 4.28710938 6.19702148 C4.93220362 7.94927671 5.57410181 9.70271168 6.21289062 11.45727539 C7.54221452 15.1010713 8.87983996 18.71580126 10.390625 22.2890625 C14.17707255 31.3285394 13.11382237 39.86612104 10 49 C6.125 47.25 6.125 47.25 5 45 C4.99108314 43.55310293 5.02848753 42.10577931 5.08984375 40.66015625 C5.15188104 34.38085493 3.90122907 28.54844784 2.5625 22.4375 C1.03114585 15.30404913 -0.46605187 8.2872639 -1 1 C-0.67 0.67 -0.34 0.34 0 0 Z " fill="#F0EEF5" transform="translate(39,29)"/>
<path d="M0 0 C0.33 0 0.66 0 1 0 C0.52960495 7.83991749 -2.22937188 14.72071135 -5 22 C-5.66 22 -6.32 22 -7 22 C-7.33 22.66 -7.66 23.32 -8 24 C-8.9801419 20.56950336 -9.64007806 17.48973251 -8.17382812 14.07714844 C-7.79677734 13.4277832 -7.41972656 12.77841797 -7.03125 12.109375 C-6.42216797 11.04589844 -6.42216797 11.04589844 -5.80078125 9.9609375 C-5.37152344 9.23132812 -4.94226563 8.50171875 -4.5 7.75 C-4.07074219 7.00492188 -3.64148438 6.25984375 -3.19921875 5.4921875 C-2.14046836 3.65702016 -1.071238 1.8279061 0 0 Z " fill="#51458E" transform="translate(118,50)"/>
<path d="M0 0 C0.66 0 1.32 0 2 0 C3.69832609 5.83799592 4.25287193 10.93107371 4 17 C3.34 17 2.68 17 2 17 C0.47893366 13.95786733 0.62570662 10.71952428 0.4375 7.375 C0.39431641 6.66859375 0.35113281 5.9621875 0.30664062 5.234375 C0.20055249 3.48981463 0.09977111 1.74493303 0 0 Z " fill="#50477E" transform="translate(36,31)"/>
<path d="M0 0 C1.98 0.66 3.96 1.32 6 2 C5.67 4.97 5.34 7.94 5 11 C4.34 9.68 3.68 8.36 3 7 C3.66 6.67 4.32 6.34 5 6 C3.68 5.34 2.36 4.68 1 4 C-0.65 5.32 -2.3 6.64 -4 8 C-2.87548273 5.0280615 -1.77706209 2.66559313 0 0 Z " fill="#EEEEEE" transform="translate(86,25)"/>
<path d="M0 0 C0.33 0 0.66 0 1 0 C2.11658501 4.68965706 1.80619523 7.53763531 0 12 C-0.99 11.34 -1.98 10.68 -3 10 C-3.99 10.495 -3.99 10.495 -5 11 C-4.75 8.625 -4.75 8.625 -4 6 C-1.9375 4.6875 -1.9375 4.6875 0 4 C0 2.68 0 1.36 0 0 Z " fill="#5A4D9A" transform="translate(104,86)"/>
<path d="M0 0 C3.95652174 3.95652174 3.95652174 3.95652174 5 7 C4.56521739 12.43478261 4.56521739 12.43478261 2 15 C1.34 10.05 0.68 5.1 0 0 Z " fill="#675C9B" transform="translate(63,127)"/>
<path d="M0 0 C0.66 0 1.32 0 2 0 C2.99 2.97 3.98 5.94 5 9 C3.35 9.33 1.7 9.66 0 10 C-0.19412181 8.52168779 -0.38012131 7.04230684 -0.5625 5.5625 C-0.66691406 4.73878906 -0.77132812 3.91507813 -0.87890625 3.06640625 C-0.91886719 2.38449219 -0.95882812 1.70257812 -1 1 C-0.67 0.67 -0.34 0.34 0 0 Z " fill="#E3E2E6" transform="translate(39,29)"/>
<path d="M0 0 C0.66 1.32 1.32 2.64 2 4 C2.33 3.34 2.66 2.68 3 2 C3.66 2 4.32 2 5 2 C5.08004482 5.5219721 5.04005702 8.61981469 4 12 C3.01 12 2.02 12 1 12 C1 11.01 1 10.02 1 9 C0.34 8.34 -0.32 7.68 -1 7 C-0.625 3.375 -0.625 3.375 0 0 Z " fill="#4C3E8B" transform="translate(33,118)"/>
<path d="M0 0 C3 2 3 2 3.8125 3.8125 C4.0557245 6.65011917 3.20169772 8.45522836 2 11 C-0.11007147 9.25689748 -0.95559826 8.13662075 -1.8125 5.5 C-2 3 -2 3 0 0 Z " fill="#4B4087" transform="translate(108,69)"/>
<path d="M0 0 C1 3 1 3 0.875 6.0625 C0.936875 7.5165625 0.936875 7.5165625 1 9 C1.99 9.66 2.98 10.32 4 11 C3.01 11.495 3.01 11.495 2 12 C-0.625 10.5625 -0.625 10.5625 -3 9 C-2.01 6.03 -1.02 3.06 0 0 Z " fill="#6D629F" transform="translate(66,142)"/>
<path d="M0 0 C0.33 0 0.66 0 1 0 C1.08121924 1.60332791 1.13929134 3.20784026 1.1875 4.8125 C1.22230469 5.70582031 1.25710937 6.59914063 1.29296875 7.51953125 C1 10 1 10 -0.38671875 11.82421875 C-2 13 -2 13 -4 13 C-4 12.01 -4 11.02 -4 10 C-3.01 10 -2.02 10 -1 10 C-1.020625 8.906875 -1.04125 7.81375 -1.0625 6.6875 C-1 3 -1 3 0 0 Z " fill="#564A8A" transform="translate(65,66)"/>
<path d="M0 0 C0.33 0 0.66 0 1 0 C0.25 7.625 0.25 7.625 -2 11 C-2.66 10.67 -3.32 10.34 -4 10 C-3.4359146 6.05140217 -2.2568294 3.29120954 0 0 Z " fill="#554D81" transform="translate(118,50)"/>
<path d="M0 0 C1.0625 1.8125 1.0625 1.8125 2 4 C1.67 4.99 1.34 5.98 1 7 C0.34 7 -0.32 7 -1 7 C-1.33 7.66 -1.66 8.32 -2 9 C-2 8.34 -2 7.68 -2 7 C-2.66 6.67 -3.32 6.34 -4 6 C-1.125 1.125 -1.125 1.125 0 0 Z " fill="#584B97" transform="translate(93,121)"/>
<path d="M0 0 C0.99 0 1.98 0 3 0 C2.67 2.97 2.34 5.94 2 9 C1.34 9 0.68 9 0 9 C0.33 7.68 0.66 6.36 1 5 C0.01 4.67 -0.98 4.34 -2 4 C-1.34 2.68 -0.68 1.36 0 0 Z " fill="#645A96" transform="translate(113,58)"/>
<path d="M0 0 C0.66 0.33 1.32 0.66 2 1 C1.51789063 1.53109375 1.03578125 2.0621875 0.5390625 2.609375 C-0.09257813 3.31578125 -0.72421875 4.0221875 -1.375 4.75 C-2.00148438 5.44609375 -2.62796875 6.1421875 -3.2734375 6.859375 C-4.87505183 8.84508688 -5.96520068 10.67954093 -7 13 C-7.3077917 9.86162389 -7.27813784 8.40656372 -5.46875 5.76171875 C-4.8190625 5.07722656 -4.169375 4.39273438 -3.5 3.6875 C-2.8503125 2.99011719 -2.200625 2.29273437 -1.53125 1.57421875 C-1.0259375 1.05472656 -0.520625 0.53523438 0 0 Z " fill="#504383" transform="translate(77,116)"/>
<path d="M0 0 C1.32 0.33 2.64 0.66 4 1 C4.33 2.98 4.66 4.96 5 7 C4.01 7 3.02 7 2 7 C0.5393715 4.35261084 0 3.10551666 0 0 Z " fill="#FAFAF5" transform="translate(40,37)"/>
<path d="M0 0 C0.66 0 1.32 0 2 0 C2.36923077 7.50769231 2.36923077 7.50769231 0.5 10 C0.005 10.33 -0.49 10.66 -1 11 C-1.14285714 3.57142857 -1.14285714 3.57142857 0 0 Z " fill="#5E5296" transform="translate(76,71)"/>
<path d="M0 0 C1.36118461 2.24195113 2.06138028 3.47826762 1.75 6.125 C1 8 1 8 -1 10 C-2.46726798 6.18510326 -1.43336419 3.70988378 0 0 Z " fill="#5D5194" transform="translate(56,45)"/>
<path d="M0 0 C1.65 0 3.3 0 5 0 C4.34 1.65 3.68 3.3 3 5 C1.68 4.67 0.36 4.34 -1 4 C-0.67 2.68 -0.34 1.36 0 0 Z " fill="#57479B" transform="translate(33,115)"/>
<path d="M0 0 C0.66 0.66 1.32 1.32 2 2 C1.56237193 5.17280351 0.22638495 8.05667611 -1 11 C-2.60080151 6.99799622 -1.29279692 3.95443764 0 0 Z " fill="#4B3F85" transform="translate(76,78)"/>
<path d="M0 0 C1.65 0 3.3 0 5 0 C5 0.66 5 1.32 5 2 C4.34 2 3.68 2 3 2 C3 2.66 3 3.32 3 4 C2.34 4 1.68 4 1 4 C0.67 4.66 0.34 5.32 0 6 C0 4.02 0 2.04 0 0 Z " fill="#594F8D" transform="translate(78,60)"/>
<path d="M0 0 C0.66 0.66 1.32 1.32 2 2 C1.625 4.125 1.625 4.125 1 6 C-0.65 5.67 -2.3 5.34 -4 5 C-2.68 3.35 -1.36 1.7 0 0 Z " fill="#E9E9EB" transform="translate(117,45)"/>
<path d="M0 0 C2.71435596 0.93305986 3.78043163 1.62673377 5.25 4.125 C5.4975 4.74375 5.745 5.3625 6 6 C2.62496331 4.8141763 0.35277269 3.72426311 -2 1 C-1.34 0.67 -0.68 0.34 0 0 Z " fill="#514783" transform="translate(49,139)"/>
<path d="M0 0 C0.66 0 1.32 0 2 0 C4 3 4 3 3.625 5.1875 C3.41875 5.785625 3.2125 6.38375 3 7 C2.01 6.67 1.02 6.34 0 6 C0 4.02 0 2.04 0 0 Z " fill="#56499A" transform="translate(105,73)"/>
</svg>
